<?xml version="1.0" encoding="UTF-8" standalone="no"?>
<!-- Generator: Adobe Illustrator 27.5.0, SVG Export Plug-In . SVG Version: 6.00 Build 0)  -->

<svg
   version="1.1"
   id="Layer_1"
   x="0px"
   y="0px"
   viewBox="0 0 8924410 8913914"
   xml:space="preserve"
   sodipodi:docname="11602236_21004063.svg"
   width="8924410"
   height="8913914"
   xmlns:inkscape="http://www.inkscape.org/namespaces/inkscape"
   xmlns:sodipodi="http://sodipodi.sourceforge.net/DTD/sodipodi-0.dtd"
   xmlns="http://www.w3.org/2000/svg"
   xmlns:svg="http://www.w3.org/2000/svg"><defs
   id="defs914" /><sodipodi:namedview
   id="namedview912"
   pagecolor="#ffffff"
   bordercolor="#000000"
   borderopacity="0.25"
   inkscape:showpageshadow="2"
   inkscape:pageopacity="0.0"
   inkscape:pagecheckerboard="0"
   inkscape:deskcolor="#d1d1d1"
   showgrid="false" />
<g
   style="opacity:0.3"
   id="g602"
   transform="translate(-3537577,-5073297)">
			<path
   style="fill:#000072"
   d="m 905.958,3425.645 c 367.336,94.877 1820.638,94.877 2187.975,0 33.979,-8.776 25.689,-48.139 -10.094,-48.139 H 916.052 c -35.783,-10e-4 -44.073,39.362 -10.094,48.139 z"
   id="path600" />
		</g><g
   id="g606"
   transform="translate(-3537577,-5073297)">
			<path
   style="fill:#000072"
   d="m 1008.787,3372.263 c 41.299,-8.069 82.598,-10.217 123.896,-11.094 41.296,-1.128 82.595,-0.53 123.894,0.083 41.299,0.479 82.595,0.601 123.894,0.522 h 123.896 495.579 495.579 247.791 l 61.946,-0.017 c 20.649,0.012 41.299,-0.708 61.948,-1.04 41.299,-0.186 82.595,0.286 123.894,11.545 2.896,0.789 4.604,3.777 3.813,6.672 -0.522,1.921 -2.024,3.32 -3.813,3.813 -41.299,11.257 -82.595,11.729 -123.894,11.545 -20.649,-0.332 -41.299,-1.055 -61.948,-1.042 l -61.946,-0.017 h -247.791 -495.579 -495.579 -123.896 c -41.299,-0.076 -82.595,0.046 -123.894,0.522 -41.299,0.615 -82.598,1.211 -123.894,0.085 -41.299,-0.879 -82.598,-3.025 -123.896,-11.094 -2.896,-0.566 -4.783,-3.372 -4.219,-6.267 0.43,-2.194 2.151,-3.811 4.219,-4.216 z"
   id="path604" />
		</g><g
   id="g905"
   transform="translate(-3537577,-5073297)">
			<g
   id="g616">
				<g
   id="g610">
					<path
   style="fill:#4d5a6a"
   d="m 2510.787,3265.52 6.524,-0.776 c 181.958,-21.631 306.505,-194.242 269.673,-373.742 l -68.363,-333.162 c -31.196,-152.031 -164.998,-261.165 -320.197,-261.165 h -397.775 11.255 -397.774 c -155.199,0 -289,109.134 -320.197,261.165 l -68.363,333.162 c -36.832,179.5 87.715,352.111 269.673,373.742 l 6.524,0.776 z"
   id="path608" />
				</g>
				<g
   id="g614">
					<path
   style="fill:#000072"
   d="M 2510.933,3268.019 H 1501.768 l -6.816,-0.791 c -87.427,-10.396 -167.109,-57.302 -218.623,-128.696 -51.509,-71.392 -70.903,-161.794 -53.208,-248.032 l 68.359,-333.162 c 31.294,-152.485 166.987,-263.162 322.651,-263.162 h 784.292 c 155.664,0 291.353,110.676 322.646,263.162 l 68.364,333.162 c 17.695,86.24 -1.704,176.646 -53.213,248.037 -51.514,71.392 -131.196,118.298 -218.618,128.691 z m -896.801,-968.842 c -153.301,0 -286.938,108.997 -317.749,259.167 l -68.359,333.162 c -17.417,84.868 1.665,173.84 52.363,244.102 50.693,70.261 129.116,116.426 215.151,126.655 l 6.523,0.774 1008.579,-0.017 6.377,-0.757 c 86.035,-10.229 164.453,-56.392 215.146,-126.65 50.698,-70.261 69.785,-159.233 52.368,-244.106 l -68.364,-333.162 c -30.811,-150.171 -164.443,-259.167 -317.744,-259.167 h -784.291 z"
   id="path612" />
				</g>
			</g>
			<g
   style="opacity:0.3"
   id="g620">
				<path
   style="fill:#000072"
   d="m 2517.315,3264.77 -6.507,0.759 H 1501.772 l -6.507,-0.759 c -116.423,-13.828 -209.312,-89.527 -251.554,-189.194 46.201,41.537 105.253,69.789 172.059,77.76 l 6.507,0.759 h 1009.036 l 6.507,-0.759 c 181.982,-21.636 306.539,-194.237 269.666,-373.725 l -68.324,-333.164 c -4.609,-22.396 -11.442,-43.815 -20.226,-64.149 49.562,45.225 85.406,105.849 99.667,175.529 l 68.379,333.164 c 36.818,179.487 -87.739,352.142 -269.667,373.779 z"
   id="path618" />
			</g>
			<g
   style="opacity:0.55"
   id="g624">
				<path
   style="fill:#ffffff"
   d="m 2559.72,2339.242 c -37.253,-14.695 -77.706,-22.666 -119.731,-22.666 H 1655.72 c -155.195,0 -289.024,109.103 -320.204,261.152 l -68.379,333.164 c -28.089,136.92 37.687,269.774 151.236,334.736 -138.493,-53.901 -224.17,-201.775 -192.827,-354.637 l 68.379,-333.164 c 31.18,-151.995 165.009,-261.152 320.204,-261.152 h 784.27 c 58.237,0 113.439,15.346 161.321,42.567 z"
   id="path622" />
			</g>
			<g
   id="g628">
				<path
   style="fill:#000072"
   d="M 2510.787,3281.786 H 1501.768 c -0.64,0 -1.279,-0.037 -1.914,-0.112 l -6.523,-0.774 c -91.245,-10.847 -174.404,-59.802 -228.164,-134.312 -53.76,-74.507 -73.999,-168.857 -55.532,-258.857 l 68.359,-333.159 c 32.598,-158.862 173.965,-274.163 336.138,-274.163 h 784.292 c 162.168,0 303.535,115.3 336.133,274.163 l 68.364,333.162 c 18.467,90.002 -1.777,184.353 -55.537,258.86 -53.76,74.507 -136.919,123.459 -228.154,134.307 l -6.523,0.774 c -0.641,0.075 -1.28,0.111 -1.92,0.111 z M 1502.73,3249.252 h 1007.095 l 5.571,-0.662 c 82.212,-9.775 157.158,-53.892 205.605,-121.035 48.447,-67.146 66.689,-152.173 50.044,-233.284 l -68.364,-333.162 c -29.507,-143.796 -157.466,-248.167 -304.258,-248.167 h -784.292 c -146.797,0 -274.756,104.37 -304.263,248.167 l -68.359,333.162 c -16.646,81.108 1.592,166.135 50.039,233.279 48.452,67.148 123.394,111.265 205.615,121.04 z"
   id="path626" />
			</g>
			<g
   id="g802">
				<g
   id="g632">
					<path
   style="fill:#4d5a6a"
   d="m 2585.585,2050.597 c -0.976,3.796 -2.006,7.646 -3.037,11.387 -0.813,2.874 -1.627,5.694 -2.44,8.514 -0.325,1.084 -0.596,2.115 -0.976,3.199 -0.651,2.332 -1.41,4.664 -2.115,6.941 -0.922,2.983 -1.898,5.911 -2.874,8.839 -0.434,1.301 -0.868,2.603 -1.301,3.85 -1.41,4.229 -2.874,8.405 -4.447,12.526 -1.627,4.555 -3.362,9.056 -5.152,13.502 -1.735,4.501 -3.579,8.948 -5.477,13.394 -1.844,4.392 -3.796,8.838 -5.802,13.177 -1.898,4.229 -3.85,8.405 -5.856,12.581 -0.271,0.542 -0.542,1.084 -0.813,1.627 -1.844,3.904 -3.796,7.754 -5.802,11.604 -0.054,0.108 -0.108,0.217 -0.163,0.325 -2.169,4.284 -4.392,8.459 -6.67,12.689 -2.711,4.989 -5.477,9.923 -8.351,14.803 -1.952,3.416 -3.959,6.778 -5.965,10.141 -0.108,0.108 -0.162,0.217 -0.162,0.271 -2.495,4.121 -5.043,8.188 -7.646,12.255 -4.338,6.778 -8.784,13.502 -13.394,20.172 -2.006,2.928 -4.067,5.802 -6.128,8.676 -1.735,2.44 -3.47,4.826 -5.26,7.267 -2.657,3.633 -5.369,7.212 -8.08,10.791 -2.657,3.47 -5.314,6.833 -8.025,10.249 -1.518,1.898 -3.036,3.796 -4.555,5.639 -0.976,1.193 -1.952,2.386 -2.928,3.579 -1.844,2.169 -3.633,4.338 -5.477,6.507 -4.989,5.856 -10.086,11.658 -15.292,17.406 -2.494,2.82 -5.097,5.585 -7.7,8.351 -1.898,2.006 -3.796,4.067 -5.694,6.073 -2.711,2.82 -5.368,5.585 -8.134,8.296 -3.904,3.958 -7.917,7.917 -11.93,11.821 -3.253,3.145 -6.507,6.236 -9.815,9.273 -0.488,0.488 -0.976,0.976 -1.464,1.356 -3.362,3.199 -6.778,6.29 -10.249,9.381 -6.345,5.694 -12.798,11.225 -19.359,16.701 -1.627,1.356 -3.254,2.711 -4.935,4.121 -3.308,2.711 -6.67,5.423 -10.086,8.134 -11.821,9.381 -23.913,18.437 -36.277,27.167 -0.217,0.163 -0.488,0.325 -0.705,0.488 -48.207,33.946 -100.643,59.161 -155.086,75.7 -18.87,5.748 -38.012,10.466 -57.317,14.153 -85.514,16.268 -174.119,11.984 -258.007,-12.743 -56.395,-16.593 -110.675,-42.459 -160.508,-77.597 -3.905,-2.765 -7.809,-5.585 -11.713,-8.405 -0.379,-0.325 -0.759,-0.596 -1.193,-0.867 -3.85,-2.874 -7.7,-5.748 -11.496,-8.622 -3.958,-3.037 -7.917,-6.127 -11.875,-9.272 h -0.054 c -3.904,-3.145 -7.754,-6.29 -11.604,-9.435 -3.904,-3.2 -7.7,-6.453 -11.496,-9.707 -3.796,-3.253 -7.537,-6.507 -11.225,-9.815 -3.742,-3.362 -7.429,-6.67 -11.062,-10.086 -3.633,-3.362 -7.212,-6.778 -10.791,-10.249 -3.579,-3.416 -7.104,-6.886 -10.574,-10.411 -3.471,-3.525 -6.941,-7.049 -10.357,-10.628 -3.416,-3.633 -6.833,-7.266 -10.249,-10.953 -3.254,-3.579 -6.453,-7.158 -9.652,-10.845 -2.494,-2.82 -4.989,-5.694 -7.429,-8.568 -7.104,-8.405 -14.044,-16.973 -20.769,-25.703 -2.711,-3.579 -5.477,-7.158 -8.08,-10.791 -0.38,-0.434 -0.705,-0.922 -1.03,-1.356 -1.844,-2.44 -3.633,-4.935 -5.368,-7.429 -4.013,-5.639 -7.917,-11.279 -11.713,-17.027 -2.115,-3.145 -4.23,-6.345 -6.236,-9.544 -3.091,-4.826 -6.128,-9.652 -9.11,-14.587 -2.061,-3.471 -4.176,-6.995 -6.236,-10.52 -2.819,-4.934 -5.585,-9.978 -8.351,-15.021 -2.006,-3.796 -4.013,-7.592 -5.965,-11.387 -2.006,-3.85 -3.959,-7.754 -5.802,-11.659 -0.325,-0.542 -0.596,-1.084 -0.814,-1.627 -4.121,-8.405 -7.971,-16.918 -11.55,-25.486 -0.217,-0.38 -0.38,-0.705 -0.488,-1.085 -1.79,-4.229 -3.525,-8.459 -5.206,-12.743 -1.79,-4.447 -3.525,-8.948 -5.152,-13.502 -1.681,-4.501 -3.308,-9.056 -4.826,-13.611 -1.139,-3.362 -2.278,-6.778 -3.362,-10.195 -0.867,-2.711 -1.681,-5.423 -2.494,-8.134 -0.38,-1.193 -0.759,-2.44 -1.085,-3.633 -0.813,-2.657 -1.572,-5.26 -2.277,-7.917 -1.085,-3.904 -2.115,-7.809 -3.145,-11.767 -40.561,-286.313 219.778,-603.835 479.899,-739.997 66.156,-34.65 145.325,-34.65 211.481,0 5.856,3.037 11.659,6.29 17.515,9.652 l 0.054,0.054 c 254.161,146.087 501.974,450.433 462.334,730.292 z"
   id="path630" />
				</g>
				<g
   id="g638">
					<g
   style="opacity:0.4"
   id="g636">
						<path
   style="fill:#000072"
   d="m 2099.994,2512.96 c 7.371,-1.914 14.719,-3.935 22.013,-6.156 54.443,-16.541 106.879,-41.755 155.086,-75.699 0.217,-0.164 0.49,-0.326 0.707,-0.49 12.362,-8.729 24.455,-17.785 36.277,-27.166 3.416,-2.711 6.778,-5.423 10.085,-8.134 1.681,-1.408 3.307,-2.764 4.935,-4.12 6.561,-5.478 13.014,-11.009 19.358,-16.702 3.471,-3.093 6.887,-6.183 10.249,-9.381 0.487,-0.381 0.975,-0.869 1.464,-1.356 3.307,-3.037 6.561,-6.13 9.815,-9.275 4.011,-3.903 8.023,-7.861 11.928,-11.82 2.767,-2.711 5.423,-5.478 8.134,-8.298 1.898,-2.004 3.797,-4.067 5.695,-6.071 2.6,-2.767 5.206,-5.531 7.7,-8.351 5.205,-5.748 10.302,-11.552 15.291,-17.406 1.843,-2.168 3.633,-4.34 5.478,-6.508 0.974,-1.194 1.951,-2.385 2.928,-3.58 1.517,-1.843 3.034,-3.741 4.554,-5.637 2.711,-3.418 5.367,-6.778 8.025,-10.25 2.711,-3.58 5.423,-7.159 8.078,-10.792 1.79,-2.438 3.527,-4.827 5.261,-7.265 2.06,-2.873 4.12,-5.748 6.127,-8.677 4.61,-6.67 9.055,-13.392 13.395,-20.171 2.603,-4.067 5.15,-8.134 7.644,-12.256 0,-0.053 0.056,-0.162 0.164,-0.27 2.004,-3.363 4.011,-6.725 5.966,-10.141 2.873,-4.88 5.64,-9.815 8.351,-14.803 2.277,-4.231 4.499,-8.404 6.667,-12.688 0.056,-0.109 0.111,-0.217 0.164,-0.326 2.007,-3.85 3.958,-7.702 5.801,-11.605 0.273,-0.543 0.543,-1.085 0.813,-1.626 2.007,-4.175 3.961,-8.351 5.857,-12.582 2.007,-4.337 3.961,-8.785 5.804,-13.175 1.896,-4.448 3.741,-8.894 5.476,-13.395 1.79,-4.446 3.527,-8.947 5.153,-13.501 1.573,-4.123 3.037,-8.298 4.446,-12.527 0.434,-1.247 0.868,-2.55 1.303,-3.852 0.974,-2.926 1.951,-5.854 2.873,-8.838 0.704,-2.277 1.464,-4.607 2.115,-6.94 0.379,-1.085 0.651,-2.115 0.977,-3.201 0.813,-2.817 1.626,-5.637 2.438,-8.513 1.03,-3.741 2.06,-7.591 3.037,-11.388 39.155,-276.428 -202.14,-576.751 -452.988,-724.848 176.462,160.504 309.983,385.391 280.116,596.387 -0.977,3.797 -2.007,7.647 -3.037,11.388 -0.813,2.875 -1.628,5.693 -2.441,8.512 -0.326,1.086 -0.596,2.116 -0.974,3.201 -0.651,2.33 -1.411,4.663 -2.115,6.94 -0.921,2.984 -1.898,5.912 -2.875,8.838 -0.432,1.303 -0.866,2.603 -1.3,3.853 -1.411,4.228 -2.873,8.404 -4.446,12.524 -1.628,4.557 -3.363,9.055 -5.153,13.504 -1.734,4.501 -3.58,8.947 -5.475,13.392 -1.846,4.393 -3.797,8.841 -5.804,13.178 -1.898,4.229 -3.85,8.407 -5.857,12.579 -0.27,0.543 -0.54,1.086 -0.813,1.628 -1.843,3.903 -3.794,7.755 -5.801,11.605 -0.056,0.106 -0.108,0.217 -0.164,0.323 -2.169,4.284 -4.39,8.46 -6.67,12.691 -2.711,4.989 -5.476,9.924 -8.351,14.804 -1.951,3.416 -3.958,6.778 -5.965,10.141 -0.106,0.106 -0.162,0.217 -0.162,0.27 -2.494,4.12 -5.044,8.187 -7.644,12.254 -4.34,6.778 -8.785,13.504 -13.395,20.173 -2.007,2.928 -4.067,5.801 -6.127,8.677 -1.737,2.439 -3.471,4.824 -5.261,7.266 -2.658,3.633 -5.37,7.212 -8.081,10.792 -2.656,3.469 -5.312,6.831 -8.023,10.247 -1.52,1.898 -3.037,3.797 -4.557,5.64 -0.977,1.194 -1.951,2.385 -2.928,3.58 -1.843,2.169 -3.633,4.337 -5.476,6.508 -4.988,5.854 -10.085,11.658 -15.291,17.406 -2.497,2.82 -5.1,5.584 -7.702,8.351 -1.898,2.004 -3.794,4.067 -5.693,6.071 -2.711,2.82 -5.37,5.587 -8.134,8.298 -3.905,3.958 -7.917,7.917 -11.931,11.82 -3.254,3.146 -6.505,6.238 -9.815,9.275 -0.487,0.487 -0.974,0.974 -1.462,1.356 -3.363,3.198 -6.778,6.288 -10.249,9.378 -6.347,5.695 -12.797,11.227 -19.36,16.702 -1.626,1.356 -3.254,2.711 -4.933,4.123 -3.31,2.711 -6.67,5.423 -10.088,8.134 -11.82,9.381 -23.912,18.436 -36.277,27.166 -0.217,0.164 -0.487,0.326 -0.704,0.49 -48.208,33.944 -100.644,59.159 -155.087,75.699 -18.87,5.748 -38.011,10.464 -57.316,14.152 -32.067,6.1 -64.571,9.312 -97.096,9.638 32.525,-0.326 65.029,-3.537 97.096,-9.638 0.924,-0.177 1.843,-0.384 2.767,-0.567 -11.693,3.037 -23.462,5.735 -35.302,7.996 -70.748,13.458 -143.606,12.807 -214.163,-1.808 -0.821,-0.646 -1.642,-1.274 -2.465,-1.922 3.884,3.082 7.771,6.119 11.653,9.098 3.797,2.875 7.647,5.748 11.497,8.624 0.434,0.27 0.815,0.54 1.194,0.866 3.903,2.82 7.808,5.64 11.711,8.407 49.836,35.138 104.115,61.004 160.509,77.598 83.889,24.725 172.493,29.009 258.007,12.741 10.091,-1.928 20.133,-4.152 30.121,-6.641 -9.072,2.251 -18.194,4.274 -27.352,6.072 z"
   id="path634" />
					</g>
				</g>
				<g
   style="opacity:0.55"
   id="g642">
					<path
   style="fill:#ffffff"
   d="m 2216.253,1384.357 c -20.009,-13.556 -40.236,-26.191 -60.462,-37.849 l -0.054,-0.054 c -5.856,-3.362 -11.658,-6.616 -17.515,-9.652 -66.156,-34.65 -145.325,-34.65 -211.481,0 -260.122,136.161 -520.46,453.708 -479.899,740.021 1.03,3.958 2.061,7.863 3.145,11.767 0.705,2.657 1.464,5.26 2.277,7.917 0.325,1.193 0.705,2.44 1.085,3.633 0.813,2.711 1.627,5.423 2.494,8.134 1.085,3.416 2.224,6.833 3.362,10.195 1.518,4.555 3.145,9.11 4.826,13.611 1.627,4.555 3.362,9.055 5.151,13.502 1.681,4.284 3.416,8.513 5.206,12.743 0.108,0.38 0.271,0.705 0.488,1.085 3.579,8.568 7.429,17.081 11.55,25.486 0.217,0.542 0.488,1.084 0.813,1.627 1.844,3.904 3.796,7.808 5.802,11.659 1.952,3.796 3.958,7.591 5.965,11.387 2.766,5.043 5.531,10.086 8.351,15.021 2.061,3.524 4.176,7.049 6.236,10.52 2.982,4.934 6.019,9.761 9.11,14.587 2.006,3.199 4.121,6.398 6.236,9.544 3.796,5.748 7.7,11.387 11.713,17.027 1.735,2.495 3.525,4.989 5.368,7.429 0.325,0.434 0.651,0.922 1.03,1.356 2.603,3.633 5.368,7.212 8.08,10.791 6.724,8.73 13.665,17.298 20.769,25.703 2.44,2.874 4.935,5.748 7.429,8.568 3.199,3.687 6.399,7.266 9.652,10.845 3.416,3.687 6.833,7.32 10.249,10.953 3.416,3.579 6.886,7.104 10.357,10.628 3.471,3.524 6.995,6.995 10.574,10.411 3.579,3.47 7.158,6.887 10.791,10.249 3.633,3.417 7.32,6.724 11.062,10.086 3.687,3.308 7.429,6.561 11.225,9.815 3.796,3.254 7.592,6.507 11.496,9.707 3.85,3.145 7.7,6.29 11.604,9.435 h 0.054 c 3.958,3.145 7.917,6.236 11.875,9.272 3.525,2.657 7.104,5.314 10.682,8.025 -4.5,-2.928 -8.947,-5.965 -13.394,-9.11 -3.904,-2.765 -7.809,-5.585 -11.713,-8.405 -0.379,-0.325 -0.759,-0.597 -1.193,-0.868 -3.85,-2.874 -7.7,-5.748 -11.496,-8.622 -3.958,-3.037 -7.917,-6.127 -11.875,-9.272 h -0.054 c -3.904,-3.145 -7.754,-6.29 -11.604,-9.435 -3.904,-3.199 -7.7,-6.453 -11.496,-9.707 -3.796,-3.253 -7.537,-6.507 -11.225,-9.815 -3.742,-3.362 -7.429,-6.67 -11.062,-10.086 -3.633,-3.362 -7.212,-6.778 -10.791,-10.249 -3.579,-3.416 -7.104,-6.887 -10.574,-10.411 -3.471,-3.525 -6.941,-7.049 -10.357,-10.628 -3.416,-3.633 -6.833,-7.266 -10.249,-10.953 -3.254,-3.579 -6.453,-7.158 -9.652,-10.845 -2.494,-2.82 -4.989,-5.694 -7.429,-8.568 -7.104,-8.405 -14.044,-16.973 -20.769,-25.703 -2.711,-3.579 -5.477,-7.158 -8.08,-10.791 -0.38,-0.434 -0.705,-0.922 -1.03,-1.356 -1.844,-2.44 -3.633,-4.934 -5.368,-7.429 -4.013,-5.639 -7.917,-11.279 -11.713,-17.027 -2.115,-3.145 -4.23,-6.345 -6.236,-9.544 -3.091,-4.826 -6.128,-9.652 -9.11,-14.587 -2.061,-3.47 -4.176,-6.995 -6.236,-10.52 -2.82,-4.935 -5.585,-9.978 -8.351,-15.021 -2.006,-3.796 -4.013,-7.592 -5.965,-11.387 -2.006,-3.85 -3.959,-7.754 -5.802,-11.659 -0.325,-0.542 -0.596,-1.084 -0.814,-1.627 -4.121,-8.405 -7.971,-16.918 -11.55,-25.486 -0.217,-0.38 -0.38,-0.705 -0.488,-1.085 -1.79,-4.229 -3.525,-8.459 -5.206,-12.743 -1.789,-4.447 -3.525,-8.947 -5.151,-13.502 -1.681,-4.501 -3.308,-9.056 -4.826,-13.611 -1.139,-3.362 -2.278,-6.778 -3.362,-10.194 -0.867,-2.711 -1.681,-5.423 -2.494,-8.134 -0.38,-1.193 -0.759,-2.44 -1.085,-3.633 -0.813,-2.657 -1.572,-5.26 -2.277,-7.917 -1.085,-3.904 -2.115,-7.809 -3.145,-11.767 -40.561,-286.313 219.778,-603.86 479.899,-740.021 66.156,-34.65 145.325,-34.65 211.481,0 5.856,3.037 11.659,6.29 17.515,9.652 l 0.054,0.054 c 29.447,16.918 58.783,35.951 87.577,56.828 z"
   id="path640" />
				</g>
				<g
   id="g646">
					<path
   style="fill:#000072"
   d="m 1999.942,2539.367 c -113.994,0 -227.964,-34.297 -325.186,-102.888 -3.97,-2.813 -7.92,-5.664 -11.865,-8.516 -0.205,-0.146 -0.405,-0.3 -0.601,-0.457 -0.273,-0.178 -0.537,-0.366 -0.801,-0.559 -4.092,-3.059 -7.866,-5.876 -11.582,-8.689 -3.843,-2.949 -7.617,-5.896 -11.387,-8.884 -0.317,-0.217 -0.62,-0.444 -0.918,-0.686 -3.813,-3.069 -7.573,-6.14 -11.338,-9.214 -4.375,-3.586 -8.267,-6.917 -12.148,-10.247 -3.892,-3.337 -7.729,-6.672 -11.504,-10.061 l -0.532,-0.479 c -3.657,-3.284 -7.256,-6.523 -10.811,-9.866 -3.628,-3.357 -7.3,-6.86 -10.972,-10.42 -3.604,-3.44 -7.251,-7.029 -10.84,-10.674 -3.677,-3.733 -7.134,-7.246 -10.537,-10.815 -3.525,-3.745 -6.963,-7.405 -10.405,-11.121 -3.447,-3.792 -6.733,-7.463 -10.015,-11.243 -2.466,-2.788 -5.039,-5.75 -7.549,-8.716 -7.446,-8.806 -14.59,-17.646 -21.25,-26.292 l -1.792,-2.363 c -2.124,-2.793 -4.248,-5.591 -6.289,-8.423 -0.376,-0.469 -0.732,-0.947 -1.074,-1.418 -2.007,-2.661 -3.921,-5.33 -5.781,-7.998 -4.355,-6.118 -8.291,-11.841 -11.934,-17.356 -2.139,-3.179 -4.351,-6.523 -6.445,-9.866 -3.091,-4.822 -6.201,-9.771 -9.253,-14.827 l -1.914,-3.215 c -1.484,-2.488 -2.979,-4.995 -4.443,-7.505 -2.798,-4.897 -5.469,-9.756 -8.135,-14.614 l -0.43,-0.784 c -2.163,-4.08 -4.199,-7.935 -6.177,-11.785 -1.963,-3.767 -3.916,-7.668 -5.771,-11.572 -0.449,-0.815 -0.859,-1.641 -1.211,-2.468 -4.38,-9.058 -8.125,-17.314 -11.435,-25.198 -0.317,-0.632 -0.664,-1.389 -0.982,-2.261 -1.763,-4.18 -3.476,-8.362 -5.137,-12.595 -1.812,-4.512 -3.628,-9.214 -5.327,-13.972 -1.665,-4.458 -3.354,-9.197 -4.937,-13.936 -1.147,-3.389 -2.319,-6.902 -3.438,-10.415 -0.884,-2.781 -1.724,-5.576 -2.568,-8.374 -0.371,-1.174 -0.811,-2.627 -1.191,-4.016 -0.742,-2.405 -1.558,-5.2 -2.315,-8.057 -1.055,-3.796 -2.109,-7.783 -3.159,-11.826 -0.156,-0.598 -0.278,-1.206 -0.366,-1.816 -24.56,-173.384 57.124,-333.84 129.976,-437.917 92.061,-131.521 222.724,-247.71 358.486,-318.774 70.938,-37.153 155.635,-37.153 226.572,0 135.762,71.065 266.426,187.256 358.486,318.774 72.852,104.077 154.536,264.534 129.976,437.917 -0.088,0.596 -0.205,1.189 -0.356,1.772 -0.996,3.882 -2.051,7.82 -3.105,11.648 l -2.788,9.709 c -0.244,0.842 -0.488,1.67 -0.771,2.52 -0.488,1.711 -1.021,3.423 -1.553,5.112 l -0.562,1.792 c -0.889,2.883 -1.826,5.706 -2.759,8.525 l -0.215,0.64 c -0.469,1.399 -0.923,2.769 -1.382,4.08 -1.416,4.246 -2.959,8.638 -4.609,12.971 -1.577,4.434 -3.389,9.138 -5.264,13.787 -1.709,4.443 -3.628,9.067 -5.596,13.689 -1.89,4.492 -3.921,9.116 -6.006,13.628 -1.875,4.185 -3.887,8.491 -5.957,12.8 l -0.942,1.882 c -1.753,3.735 -3.804,7.778 -5.913,11.821 -2.3,4.558 -4.59,8.853 -6.929,13.201 -2.827,5.21 -5.688,10.305 -8.652,15.347 -1.904,3.33 -3.965,6.78 -6.021,10.227 -0.024,0.037 -0.044,0.073 -0.068,0.11 -0.049,0.083 -0.098,0.166 -0.146,0.249 -2.563,4.236 -5.186,8.418 -7.861,12.598 -4.771,7.454 -9.258,14.209 -13.711,20.654 -2.036,2.974 -4.165,5.94 -6.289,8.906 -1.753,2.456 -3.525,4.897 -5.356,7.397 -2.715,3.706 -5.474,7.354 -8.237,11.001 -2.769,3.618 -5.483,7.056 -8.262,10.549 -1.597,2 -3.164,3.958 -4.736,5.862 l -8.564,10.283 c -5.107,5.991 -10.361,11.97 -15.63,17.786 -2.393,2.715 -5.039,5.532 -7.686,8.345 l -5.957,6.348 c -2.969,3.091 -5.708,5.938 -8.555,8.73 -3.784,3.838 -7.876,7.878 -11.973,11.863 -3.311,3.201 -6.587,6.316 -9.922,9.377 -0.62,0.613 -1.25,1.204 -1.875,1.741 -3.364,3.193 -6.782,6.284 -10.259,9.377 -6.738,5.994 -13.379,11.724 -19.746,17.036 l -4.897,4.094 c -3.521,2.888 -6.953,5.654 -10.43,8.416 -11.982,9.512 -24.438,18.835 -37.012,27.717 -0.098,0.068 -0.42,0.291 -0.601,0.415 -0.044,0.029 -0.088,0.061 -0.132,0.093 -97.064,68.261 -210.779,102.387 -324.466,102.389 z m -317.588,-137.481 c 3.726,2.693 7.456,5.383 11.182,8.022 182.964,129.089 428.975,129.277 612.163,0.457 v 0 c 0.254,-0.183 0.527,-0.371 0.688,-0.479 12.07,-8.525 24.028,-17.48 35.537,-26.614 3.345,-2.656 6.641,-5.315 9.883,-7.971 l 4.824,-4.031 c 6.104,-5.098 12.49,-10.608 18.97,-16.372 3.33,-2.961 6.616,-5.93 9.844,-9.004 0.278,-0.269 0.571,-0.525 0.874,-0.774 l 0.303,-0.303 c 0.166,-0.164 0.337,-0.325 0.508,-0.483 3.203,-2.942 6.353,-5.935 9.502,-8.979 3.896,-3.792 7.832,-7.671 11.65,-11.548 2.817,-2.764 5.332,-5.378 7.891,-8.042 l 5.693,-6.074 c 2.617,-2.778 5.029,-5.342 7.339,-7.954 5.186,-5.725 10.22,-11.458 15.103,-17.188 l 8.169,-9.805 c 1.528,-1.858 2.998,-3.694 4.468,-5.53 2.622,-3.301 5.22,-6.587 7.817,-9.978 2.603,-3.44 5.264,-6.951 7.871,-10.515 1.743,-2.378 3.438,-4.707 5.132,-7.09 2.026,-2.825 4.019,-5.605 5.962,-8.438 4.272,-6.182 8.55,-12.625 13.11,-19.749 2.524,-3.943 5,-7.891 7.422,-11.892 0.039,-0.066 0.078,-0.132 0.117,-0.198 v 0 c 1.958,-3.276 3.911,-6.55 5.815,-9.878 2.876,-4.893 5.552,-9.666 8.174,-14.492 2.183,-4.053 4.346,-8.108 6.45,-12.268 0.029,-0.059 0.22,-0.442 0.254,-0.5 1.904,-3.657 3.76,-7.314 5.513,-11.023 l 1.001,-2.017 c 1.807,-3.765 3.701,-7.805 5.532,-11.902 2.012,-4.346 3.887,-8.616 5.659,-12.83 1.851,-4.346 3.623,-8.618 5.288,-12.939 1.802,-4.478 3.457,-8.777 5.01,-13.125 1.611,-4.238 3.003,-8.196 4.341,-12.205 l 1.504,-4.465 c 0.869,-2.612 1.738,-5.225 2.559,-7.883 l 0.601,-1.924 c 0.474,-1.514 0.957,-3.044 1.387,-4.575 0.093,-0.347 0.2,-0.688 0.322,-1.028 0.156,-0.454 0.278,-0.896 0.405,-1.34 l 2.71,-9.419 c 0.894,-3.254 1.821,-6.702 2.705,-10.122 17.676,-126.88 -26.533,-273.789 -124.541,-413.801 -89.175,-127.392 -215.62,-239.878 -346.924,-308.608 -61.484,-32.207 -134.902,-32.207 -196.387,0 -131.304,68.73 -257.754,181.213 -346.929,308.608 -97.998,140.005 -142.202,286.909 -124.541,413.784 0.933,3.562 1.865,7.085 2.842,10.605 0.703,2.656 1.411,5.063 2.163,7.522 0.4,1.448 0.723,2.49 1.035,3.486 0.854,2.839 1.646,5.464 2.481,8.091 1.06,3.335 2.173,6.653 3.276,9.917 1.479,4.443 3.042,8.816 4.653,13.137 1.636,4.573 3.296,8.875 5.005,13.125 1.68,4.282 3.364,8.379 5.098,12.476 0.029,0.076 0.064,0.151 0.093,0.229 0.151,0.305 0.293,0.615 0.42,0.918 3.198,7.659 6.86,15.728 11.187,24.673 0.103,0.215 0.205,0.432 0.298,0.652 0.205,0.361 0.4,0.73 0.576,1.106 1.758,3.713 3.613,7.432 5.522,11.094 1.968,3.826 3.945,7.563 5.918,11.304 l 0.308,0.557 c 2.583,4.7 5.161,9.397 7.788,13.999 1.338,2.285 2.783,4.712 4.219,7.119 l 1.88,3.159 c 2.847,4.712 5.811,9.417 8.823,14.124 1.997,3.179 4.014,6.235 6.035,9.238 3.506,5.308 7.236,10.725 11.465,16.67 1.714,2.456 3.374,4.778 5.093,7.046 0.073,0.1 0.405,0.554 0.479,0.657 l -0.22,-0.242 c 0.366,0.413 0.708,0.842 1.025,1.287 1.958,2.737 4.014,5.435 6.065,8.13 l 1.753,2.312 c 6.279,8.147 13.11,16.602 20.224,25.02 2.354,2.773 4.771,5.559 7.188,8.291 3.223,3.713 6.343,7.2 9.512,10.686 3.281,3.538 6.67,7.144 10.059,10.752 3.203,3.357 6.543,6.746 9.883,10.137 3.569,3.625 6.973,6.975 10.43,10.276 3.584,3.474 7.07,6.802 10.61,10.076 3.472,3.267 6.89,6.338 10.361,9.456 l 0.522,0.471 c 3.589,3.22 7.241,6.394 10.942,9.568 3.701,3.171 7.407,6.35 11.216,9.473 3.765,3.076 7.236,5.908 10.728,8.726 0.249,0.176 0.498,0.361 0.737,0.552 3.887,3.086 7.769,6.121 11.66,9.104 3.54,2.681 7.212,5.425 10.884,8.167 0.643,0.423 1.243,0.863 1.834,1.336 z m -20.483,25.274 c 0,0 0.01,0.01 0.015,0.012 0,-0.01 -0.01,-0.01 -0.015,-0.012 z m 724.824,-82.339 c -0.039,0.032 -0.078,0.063 -0.117,0.095 0.039,-0.031 0.078,-0.063 0.117,-0.095 z M 1457.501,2127.66 c 0.01,0.01 0.01,0.015 0.01,0.022 0,-0.01 0,-0.014 -0.01,-0.022 z m -0.996,-2.47 c 0,0.01 0,0.01 0.01,0.012 -0.01,-0.01 -0.01,-0.01 -0.01,-0.012 z m 1129.082,-74.59 h 0.049 z"
   id="path644" />
				</g>
				<g
   id="g800">
					<g
   id="g798">
						<g
   id="g656">
							<g
   id="g650">
								<path
   style="fill:#fdbd91"
   d="m 2455.638,2132.773 c -1,3.046 -2.088,6.135 -3.219,9.311 -30.152,77.229 -89.281,118.388 -125.089,71.79 l 21.363,-104.9 14.532,-71.312 c 55.865,-38.157 130.353,-21.015 92.413,95.111 z"
   id="path648" />
							</g>
							<g
   id="g654">
								<path
   style="fill:#000072"
   d="m 2363.145,2235.473 c -14.209,0 -27.021,-6.97 -37.354,-20.417 l -0.537,-0.701 36.226,-177.849 0.649,-0.444 c 30.498,-20.83 64.824,-24.441 85.405,-8.999 13.403,10.054 32.515,37.236 9.941,106.313 v 0 c -1.001,3.062 -2.095,6.167 -3.232,9.36 -20.151,51.619 -53.384,87.817 -84.678,92.273 -2.167,0.31 -4.31,0.464 -6.42,0.464 z m -33.735,-22.088 c 10.874,13.777 24.526,19.922 39.609,17.786 29.932,-4.265 61.963,-39.509 81.592,-89.792 1.108,-3.105 2.192,-6.177 3.184,-9.209 v 0 c 16.172,-49.492 13.12,-85.718 -8.589,-102.007 -19.111,-14.343 -51.284,-10.842 -80.239,8.662 z"
   id="path652" />
							</g>
						</g>
						<g
   style="opacity:0.3"
   id="g660">
							<path
   style="fill:#000072"
   d="m 2455.638,2132.773 c -1,3.046 -2.088,6.135 -3.219,9.311 -30.152,77.229 -89.281,118.388 -125.089,71.79 l 21.363,-104.9 c 5.004,-0.392 8.006,-0.609 8.006,-0.609 21.711,67.918 53.255,73.965 94.632,18.1 0,0 1.566,2.306 4.307,6.308 z"
   id="path658" />
						</g>
						<g
   id="g664">
							<path
   style="fill:#000072"
   d="m 2363.223,2246.569 c -17.632,0 -33.828,-8.594 -46.24,-24.739 -2.31,-3 -3.198,-6.853 -2.441,-10.562 l 35.894,-176.211 c 0.674,-3.328 2.622,-6.26 5.425,-8.174 34.849,-23.797 74.648,-27.097 99.023,-8.193 16.353,12.676 39.375,46.14 9.81,127.834 -22.007,56.379 -57.808,94.38 -93.55,99.475 -2.667,0.382 -5.308,0.57 -7.921,0.57 z m -21.836,-36.306 c 7.681,8.049 16.27,11.284 26.074,9.895 25.63,-3.655 54.883,-36.938 72.798,-82.82 17.368,-48.008 16.914,-83.845 -1.367,-98.015 -14.292,-11.079 -40.073,-8.374 -63.97,6.309 z"
   id="path662" />
						</g>
						<g
   id="g674">
							<g
   id="g668">
								<path
   style="fill:#fdbd91"
   d="m 1544.362,2132.773 c 1.001,3.046 2.088,6.135 3.22,9.311 30.152,77.229 89.281,118.388 125.089,71.79 l -21.363,-104.9 -14.532,-71.312 c -55.866,-38.157 -130.354,-21.015 -92.414,95.111 z"
   id="path666" />
							</g>
							<g
   id="g672">
								<path
   style="fill:#000072"
   d="m 1636.866,2236.247 c -2.148,0 -4.331,-0.159 -6.543,-0.474 -31.563,-4.495 -65.034,-40.884 -85.264,-92.703 -1.172,-3.274 -2.266,-6.384 -3.276,-9.451 v -0.01 c -22.715,-69.534 -3.35,-96.992 10.22,-107.173 20.845,-15.64 55.527,-12.036 86.299,8.982 l 0.908,0.62 36.367,178.501 -0.757,0.981 c -10.488,13.647 -23.501,20.722 -37.954,20.722 z m -89.927,-104.317 c 0.991,3.025 2.075,6.091 3.198,9.243 19.502,49.951 51.289,85.007 80.952,89.233 14.883,2.112 27.881,-3.672 38.677,-17.219 l -35.43,-173.899 c -28.618,-19.172 -60.298,-22.608 -79.077,-8.508 -21.425,16.075 -24.379,51.995 -8.32,101.15 z"
   id="path670" />
							</g>
						</g>
						<g
   style="opacity:0.55"
   id="g678">
							<path
   style="fill:#ffffff"
   d="m 1624.424,2232.254 c -27.628,-9.224 -56.127,-42.552 -74.226,-88.889 -1.131,-3.176 -2.219,-6.265 -3.22,-9.311 -37.94,-116.126 36.548,-133.269 92.413,-95.111 l 0.261,1.305 c -50.514,-19.101 -101.463,7.397 -68.744,107.598 1.001,3.046 2.089,6.135 3.22,9.311 12.835,32.937 30.978,59.303 50.296,75.097 z"
   id="path676" />
						</g>
						<g
   id="g682">
							<path
   style="fill:#000072"
   d="m 1636.778,2246.569 c -2.612,0 -5.254,-0.188 -7.92,-0.569 -35.742,-5.095 -71.543,-43.096 -93.433,-99.17 -29.683,-82 -6.66,-115.464 9.692,-128.14 24.38,-18.896 64.17,-15.605 99.018,8.193 2.803,1.914 4.751,4.846 5.425,8.174 l 35.899,176.211 c 0.757,3.708 -0.132,7.561 -2.441,10.562 -12.412,16.143 -28.608,24.739 -46.24,24.739 z m -53.022,-214.045 c -8.882,0 -16.743,2.224 -22.646,6.799 -18.281,14.17 -18.735,50.007 -1.25,98.32 17.798,45.576 47.051,78.86 72.681,82.515 9.814,1.392 18.384,-1.846 26.074,-9.895 l -33.54,-164.631 c -14.024,-8.618 -28.702,-13.108 -41.319,-13.108 z"
   id="path680" />
						</g>
						<g
   id="g692">
							<g
   id="g686">
								<path
   style="fill:#fdbd91"
   d="m 2355.349,2111.628 v 60.303 c 0,103.726 -49.644,202.1 -135.139,260.837 -1.219,0.827 -2.437,1.61 -3.612,2.437 -130.396,87.41 -301.126,87.41 -431.523,0.044 -1.175,-0.827 -2.393,-1.654 -3.611,-2.48 -85.539,-58.694 -135.183,-157.068 -135.183,-260.837 v -60.303 c 0,0 0.218,-3.872 0.653,-10.834 3.22,-55.039 17.795,-301.997 20.145,-308.306 77.62,-208.931 853.649,-157.721 688.27,319.139 z"
   id="path684" />
							</g>
							<g
   id="g690">
								<path
   style="fill:#000072"
   d="m 2000.792,2503.815 c -75.625,0 -151.24,-22.104 -217.227,-66.313 -1.099,-0.774 -2.183,-1.511 -3.271,-2.251 -85.747,-58.833 -136.724,-157.18 -136.724,-263.32 v -60.303 c 0.01,-0.154 0.225,-4.031 0.659,-11.001 5.307,-90.784 17.91,-302.651 20.313,-309.084 20.371,-54.841 89.443,-95.476 189.497,-111.48 96.582,-15.449 209.087,-4.978 300.942,28.005 91.714,32.934 294.995,138.215 203.076,404.016 v 59.846 c 0,106.086 -50.957,204.431 -136.313,263.071 l -1.406,0.942 c -0.737,0.491 -1.47,0.979 -2.183,1.479 -66.025,44.262 -141.699,66.393 -217.363,66.393 z m -55.205,-825.334 c -31.011,0 -61.577,2.28 -90.688,6.938 -98.071,15.684 -165.601,55.054 -185.273,108.015 -1.88,6.948 -11.943,170.017 -19.985,307.519 -0.435,6.956 -0.654,10.823 -0.654,10.828 v 60.149 c 0,104.353 50.098,201.025 134.009,258.601 1.455,0.991 2.568,1.748 3.638,2.5 130.112,87.173 298.311,87.153 428.452,-0.078 0.703,-0.496 1.47,-1.008 2.246,-1.523 l 1.353,-0.906 c 83.872,-57.62 133.95,-154.294 133.95,-258.594 l 0.146,-61.191 c 90.708,-261.548 -109.39,-365.161 -199.634,-397.566 -63.347,-22.749 -136.608,-34.692 -207.565,-34.692 z"
   id="path688" />
							</g>
						</g>
						<g
   style="opacity:0.3"
   id="g696">
							<path
   style="fill:#000072"
   d="m 2355.349,2111.628 v 60.303 c 0,103.726 -49.644,202.1 -135.139,260.837 -1.219,0.827 -2.437,1.61 -3.612,2.437 -130.396,87.41 -301.126,87.41 -431.523,0.044 -1.175,-0.827 -2.393,-1.654 -3.611,-2.48 -2.698,-1.871 -5.395,-3.785 -8.049,-5.743 122.696,59.651 269.756,50.775 385.186,-26.628 1.175,-0.827 2.393,-1.61 3.611,-2.437 85.495,-58.737 135.139,-157.111 135.139,-260.837 l 5.157,-76.015 c 56.127,-161.81 -1.328,-258.874 -97.919,-329.098 131.442,64.785 217.286,187.742 150.76,379.617 z"
   id="path694" />
						</g>
						<g
   style="opacity:0.3"
   id="g700">
							<path
   style="fill:#000072"
   d="m 2355.349,2111.628 v 24.496 c -38.984,-57.432 -46.511,-214.152 -46.511,-214.152 -34.082,37.012 -225.505,79.688 -359.845,8.323 -7.247,-3.849 -15.197,3.848 -11.56,11.203 1.639,3.314 2.302,4.433 2.302,4.433 -17.669,10.938 -100.899,0.277 -146.048,-25.995 -12.557,-7.307 -28.57,0.608 -30.819,14.961 -10.116,64.55 -42.253,109.487 -111.018,176.732 -1.697,-3.611 -3.35,-7.223 -4.917,-10.834 3.22,-55.039 17.795,-301.997 20.145,-308.306 77.621,-208.931 853.65,-157.721 688.271,319.139 z"
   id="path698" />
						</g>
						<g
   style="opacity:0.55"
   id="g704">
							<path
   style="fill:#ffffff"
   d="m 2147.941,2471.796 c -117.91,48.339 -254.354,36.156 -362.866,-36.547 -1.175,-0.827 -2.393,-1.654 -3.611,-2.48 -85.539,-58.694 -135.183,-157.068 -135.183,-260.837 v -60.303 c 0,0 18.144,-312.047 20.798,-319.139 16.316,-43.901 63.436,-76.315 126.22,-95.72 -47.208,19.71 -81.884,48.208 -95.415,84.582 -2.654,7.136 -20.797,319.139 -20.797,319.139 v 60.304 c 0,103.769 49.644,202.143 135.183,260.881 1.219,0.783 2.564,1.448 3.655,2.437 84.662,76.655 221.677,82.36 332.016,47.683 z"
   id="path702" />
						</g>
						<g
   id="g708">
							<path
   style="fill:#000072"
   d="m 2000.821,2514.177 c -77.632,0 -155.254,-22.695 -222.988,-68.091 -1.25,-0.835 -2.5,-1.685 -3.75,-2.539 -88.198,-60.52 -140.854,-162.061 -140.854,-271.619 v -60.3 c 0,-0.254 0,-0.505 0.02,-0.757 18.252,-313.757 20.771,-320.723 21.597,-322.944 v 0 c 47.769,-128.523 316.87,-156.67 503.672,-89.578 88.984,31.963 156.357,82.649 194.844,146.577 45.288,75.239 50.347,165.696 15.039,268.887 v 58.115 c 0,109.531 -52.642,211.06 -140.82,271.594 l -3.716,2.522 c -67.746,45.42 -145.397,68.13 -223.044,68.133 z m -341.489,-402.171 v 59.922 c 0,100.95 48.423,194.443 129.526,250.098 1.162,0.798 2.324,1.584 3.496,2.368 126.665,84.89 290.332,84.875 416.958,-0.024 l 3.481,-2.363 c 81.094,-55.669 129.502,-149.153 129.502,-250.078 v -60.3 c 0,-1.455 0.244,-2.903 0.718,-4.277 87.69,-252.803 -105.986,-353.061 -193.325,-384.434 -189.302,-67.988 -430.195,-30.337 -470.015,73.162 -2.416,16.856 -13.417,196.956 -20.341,315.926 z m 19.985,-314.983 c -0.01,0 -0.01,0 -0.01,0 0,0 0,0 0.01,0 z m 0.093,-0.259 c -0.029,0.076 -0.063,0.168 -0.088,0.244 0.024,-0.07 0.054,-0.151 0.088,-0.244 z m -12.329,-4.292 h 0.049 z"
   id="path706" />
						</g>
						<g
   id="g718">
							<g
   id="g712">
								<path
   style="fill:#ac3d50"
   d="m 2351.26,1664.572 c 97.896,125.089 85.713,342.765 3.263,456.846 -63.088,-34.807 -67.265,-199.446 -67.265,-199.446 -149.323,40.638 -300.43,15.837 -437.441,-102.203 -2.915,46.381 35.939,89.411 35.939,89.411 -17.621,-0.522 -33.415,-3.089 -47.599,-7.353 -49.557,-14.837 -79.056,-50.731 -97.112,-95.85 -17.404,156.633 -18.491,191.44 -94.763,305.651 -76.141,-163.159 -90.151,-364.389 36.765,-424.562 -176.951,-60.913 -111.688,-184.218 40.594,-74.705 -74.705,-107.337 19.579,-148.714 39.158,-30.456 110.121,-201.143 593.899,-130.527 659.468,97.896 l -70.833,-15.185 c -0.131,-0.044 -0.174,-0.044 -0.174,-0.044 z"
   id="path710" />
							</g>
							<g
   id="g716">
								<path
   style="fill:#000072"
   d="m 2355.313,2124.95 -2.1,-1.16 c -59.37,-32.754 -67.568,-173.735 -68.55,-198.313 -158.618,42.158 -304.009,8.542 -432.29,-99.958 0.42,42.554 35.029,81.438 35.396,81.843 l 4.253,4.712 -6.343,-0.185 c -17.266,-0.51 -33.516,-3.02 -48.306,-7.463 -42.861,-12.835 -73.95,-41.619 -94.771,-87.852 l -0.952,8.591 c -15.479,140.251 -19.639,177.947 -93.115,287.969 l -2.676,4.004 -2.036,-4.363 c -76.684,-164.336 -89.434,-361.416 32.3,-425.281 -71.475,-25.95 -99.58,-60.898 -101.904,-85.393 -1.216,-12.793 4.277,-23.377 15.469,-29.8 20.977,-12.041 64.116,-9.888 124.102,29.949 -25.132,-41.118 -24.424,-70.876 -15.347,-84.517 5.317,-7.991 13.652,-11.448 22.778,-9.475 15.273,3.279 34.126,22.38 42.91,65.881 60.562,-100.615 206.66,-122.864 324.966,-109.712 140.967,15.667 299.458,88.108 335.776,214.624 l 1.245,4.346 -68.262,-14.631 c 94.985,128.484 78.491,344.06 -1.138,454.241 z m -65.434,-206.501 0.088,3.455 c 0.044,1.611 4.751,159.788 63.784,195.93 78.486,-110.918 93.281,-326.487 -4.624,-451.592 l -3.433,-4.382 6.626,0.195 66.035,14.133 c -37.998,-121.409 -192.329,-191.087 -329.858,-206.372 -119.043,-13.235 -266.494,9.604 -323.32,113.389 l -3.77,6.887 -1.284,-7.747 c -7.627,-46.062 -26.333,-65.842 -40.039,-68.786 -6.963,-1.487 -13.042,1.047 -17.124,7.178 -8.97,13.482 -8.354,45.159 22.905,90.076 l 9.038,12.991 -12.847,-9.241 c -63.931,-45.969 -109.824,-48.965 -129.668,-37.559 -9.238,5.303 -13.774,14.033 -12.773,24.585 2.134,22.417 30.728,57.585 104.316,82.915 l 6.289,2.166 -6.011,2.847 c -123.56,58.579 -112.417,253.02 -37.5,416.575 70.156,-105.83 74.375,-144.038 89.551,-281.518 l 3.286,-29.644 4.019,10.039 c 20.103,50.234 51.299,81.069 95.366,94.263 12.583,3.782 26.284,6.121 40.801,6.97 -10.044,-12.617 -35.039,-48.152 -32.622,-86.602 l 0.342,-5.444 4.131,3.562 c 128.774,110.943 275.108,145.147 434.961,101.638 z"
   id="path714" />
							</g>
						</g>
						<g
   style="opacity:0.3"
   id="g722">
							<path
   style="fill:#000072"
   d="m 1722.934,1778.708 c 6.488,12.521 12.407,26.635 16.327,43.367 -15.794,143.101 -19.405,179.344 -92.979,289.553 -8.615,-18.491 -16.446,-37.418 -23.321,-56.605 60.412,-93.713 67.476,-146.647 81.432,-272.902 1.073,-9.706 14.048,-12.082 18.541,-3.413 z"
   id="path720" />
						</g>
						<g
   style="opacity:0.55"
   id="g726">
							<path
   style="fill:#ffffff"
   d="m 1694.881,1593.782 c -95.807,-40.594 -130.484,29.586 -37.157,83.451 -134.704,-58.737 -86.67,-154.37 37.157,-83.451 z"
   id="path724" />
						</g>
						<g
   style="opacity:0.55"
   id="g730">
							<path
   style="fill:#ffffff"
   d="m 1680.001,1688.589 c 0.089,0.04 0.178,0.081 0.269,0.121 12.061,5.333 14.611,21.161 4.459,29.579 -86.685,71.876 -83.389,233.596 -26.177,374.587 -3.829,6.004 -7.919,12.27 -12.27,18.752 -75.532,-161.854 -89.934,-361.126 33.719,-423.039 z"
   id="path728" />
						</g>
						<g
   style="opacity:0.55"
   id="g734">
							<path
   style="fill:#ffffff"
   d="m 1717.679,1610.62 -0.293,-0.162 c -50.558,-77.838 -4.557,-122.663 26.16,-86.768 -16.966,2.504 -27.041,28.743 -8.2,70.256 4.998,11.012 -7.054,22.473 -17.667,16.674 z"
   id="path732" />
						</g>
						<g
   style="opacity:0.55"
   id="g738">
							<path
   style="fill:#ffffff"
   d="m 2326.242,1562.325 c -83.363,-38.462 -195.008,-64.176 -296.34,-64.654 -15.62,29.978 -68.266,28.498 -90.412,7.179 -56.997,10.225 -105.249,31.805 -135.357,67.787 -8.615,10.312 -25.453,9.615 -32.24,-2.001 -0.392,-0.609 -0.74,-1.262 -1.044,-2.001 94.414,-120.391 412.901,-130.311 555.393,-6.31 z"
   id="path736" />
						</g>
						<g
   id="g742">
							<path
   style="fill:#000072"
   d="m 2354.512,2134.472 c -2.139,0 -4.307,-0.527 -6.294,-1.626 -57.563,-31.758 -70.42,-149.023 -73.257,-194.233 -148.608,36.04 -285.586,6.489 -407.915,-87.935 8.843,27.686 28.149,49.478 28.413,49.768 3.486,3.889 4.331,9.49 2.129,14.226 -2.148,4.617 -6.768,7.558 -11.831,7.558 -0.132,0 -0.264,0 -0.4,-0.01 -59.932,-1.841 -105.537,-26.038 -136.074,-72.07 -13.784,123.091 -21.636,163.137 -92.148,268.721 -2.617,3.916 -7.104,6.111 -11.846,5.767 -4.702,-0.359 -8.843,-3.223 -10.835,-7.495 -74.824,-160.339 -89.258,-351.565 18.643,-427.686 -61.714,-26.814 -86.782,-61.24 -89.175,-86.382 -1.597,-16.824 5.918,-31.311 20.62,-39.749 19.751,-11.348 56.055,-12.178 104.775,12.59 -10.747,-29.233 -7.935,-51.216 0.518,-63.919 7.685,-11.54 20.249,-16.721 33.56,-13.857 19.17,4.119 35.078,22.8 44.917,51.672 69.019,-88.63 208.11,-108.308 321.929,-95.669 144.395,16.047 306.938,90.933 344.57,222.048 1.27,4.409 0.127,9.158 -3.003,12.51 -3.13,3.354 -7.783,4.812 -12.28,3.855 l -38.833,-8.33 c 35.332,57.961 53.945,132.283 52.881,213.062 -1.177,88.708 -26.133,173.184 -68.472,231.77 -2.535,3.505 -6.519,5.409 -10.592,5.409 z m -67.26,-225.552 c 2.778,0 5.518,0.886 7.798,2.581 3.213,2.392 5.151,6.13 5.254,10.137 1.05,40.557 12.378,145.942 50.977,181.392 71.113,-110.188 82.358,-312.019 -10.298,-430.413 -3.389,-4.326 -3.701,-10.31 -0.786,-14.966 2.91,-4.661 8.408,-6.995 13.804,-5.842 l 48.174,10.332 c -45.234,-106.416 -187.339,-167.876 -314.819,-182.046 -145.43,-16.155 -268.315,26.262 -313.106,108.076 -2.681,4.885 -8.154,7.537 -13.638,6.602 -5.488,-0.933 -9.78,-5.244 -10.688,-10.737 -7.266,-43.872 -24.116,-58.669 -32.007,-60.364 -1.938,-0.417 -4.209,-0.42 -6.348,2.795 -5.376,8.081 -7.534,34.873 22.783,78.438 3.633,5.22 2.974,12.295 -1.553,16.758 -4.541,4.456 -11.626,5.002 -16.782,1.296 -56.094,-40.342 -99.927,-47.637 -118.481,-36.985 -5.752,3.301 -8.247,8.088 -7.622,14.636 1.982,20.889 32.866,51.907 97.383,74.116 5.02,1.726 8.491,6.318 8.784,11.616 0.293,5.298 -2.646,10.247 -7.441,12.52 -68.267,32.366 -85.034,106.145 -87.075,162.339 -2.422,66.621 14.56,146.858 46.914,223.262 58.813,-91.694 62.983,-129.46 77.505,-261.025 l 2.09,-18.904 c 0.664,-5.95 5.288,-10.686 11.221,-11.492 5.947,-0.808 11.65,2.534 13.872,8.089 21.016,52.561 55.517,82.895 105.039,92.092 -11.216,-18.53 -23.223,-45.537 -21.416,-74.27 0.313,-4.946 3.394,-9.29 7.964,-11.213 4.561,-1.924 9.829,-1.099 13.584,2.143 126.016,108.557 269.155,142.036 425.493,99.495 1.126,-0.309 2.278,-0.458 3.421,-0.458 z"
   id="path740" />
						</g>
						<g
   id="g746">
							<path
   style="fill:#000072"
   d="m 2287.247,1935.029 c -5.757,0 -11.03,-3.84 -12.593,-9.665 -1.875,-6.963 2.251,-14.124 9.214,-15.996 16.211,-4.36 32.603,-9.595 48.721,-15.561 6.763,-2.5 14.272,0.95 16.772,7.71 2.5,6.76 -0.952,14.27 -7.71,16.772 -16.865,6.243 -34.023,11.721 -51.006,16.289 -1.133,0.304 -2.275,0.451 -3.398,0.451 z"
   id="path744" />
						</g>
						<g
   style="opacity:0.3"
   id="g750">
							<path
   style="fill:#000072"
   d="m 2354.523,2121.417 c -63.088,-34.807 -67.265,-199.446 -67.265,-199.446 -149.323,40.638 -300.43,15.837 -437.441,-102.203 -2.915,46.381 35.939,89.411 35.939,89.411 -17.621,-0.522 -33.415,-3.089 -47.599,-7.353 -71.442,-117.736 -41.029,-145.495 61.696,-109.295 285.072,91.978 492.61,106.38 451.407,-127.96 97.895,125.09 85.712,342.765 3.263,456.846 z"
   id="path748" />
						</g>
						<g
   style="opacity:0.2"
   id="g754">
							<path
   style="fill:#fefefe"
   d="m 2282.149,1773.355 c 0,19.773 -38.712,35.802 -86.467,35.802 -47.754,0 -86.467,-16.029 -86.467,-35.802 0,-19.773 38.713,-20.284 86.467,-20.284 47.755,-10e-4 86.467,0.511 86.467,20.284 z"
   id="path752" />
						</g>
						<g
   id="g760">
							<g
   id="g758">
								<path
   style="fill:#000072"
   d="m 2046.562,2352.994 c 0,0 -18.724,11.958 -67.514,11.958 -10.585,0.732 -40.876,-0.932 -79.156,-35.883 0,0 17.684,50.971 78.016,50.971 0,0 34.327,3.12 68.654,-27.046 z"
   id="path756" />
							</g>
						</g>
						<g
   id="g764">
							<path
   style="fill:#000072"
   d="m 1769.536,2126.477 c 4.099,-13.313 13.906,-24.39 25.991,-31.926 12.148,-7.527 26.707,-11.379 41.143,-11.228 14.451,0.1 28.804,4.243 40.818,11.729 11.963,7.507 21.78,18.274 26.365,31.426 -13.13,-4.512 -24.314,-8.115 -35.354,-10.435 -10.964,-2.368 -21.536,-3.54 -32.095,-3.687 -10.559,-0.107 -21.096,0.825 -31.963,3.135 -10.94,2.26 -21.99,5.952 -34.905,10.986 z"
   id="path762" />
						</g>
						<g
   id="g768">
							<path
   style="fill:#000072"
   d="m 2237.336,2126.477 c -12.915,-5.034 -23.965,-8.726 -34.905,-10.986 -10.867,-2.31 -21.404,-3.242 -31.963,-3.135 -10.559,0.146 -21.13,1.318 -32.095,3.687 -11.04,2.319 -22.224,5.923 -35.354,10.435 4.585,-13.152 14.402,-23.918 26.365,-31.426 12.014,-7.485 26.367,-11.628 40.818,-11.729 14.436,-0.151 28.994,3.701 41.143,11.228 12.085,7.536 21.892,18.613 25.991,31.926 z"
   id="path766" />
						</g>
						<g
   id="g772">
							<ellipse
   style="fill:#000072"
   cx="1849.817"
   cy="2205.989"
   rx="44.870998"
   ry="59.193001"
   id="ellipse770" />
						</g>
						<g
   id="g782">
							<g
   id="g776">
								<ellipse
   style="fill:#ffffff"
   cx="1861.278"
   cy="2192.259"
   rx="13.557"
   ry="19.877001"
   id="ellipse774" />
							</g>
							<g
   id="g780">
								<path
   style="fill:#000072"
   d="m 1861.28,2214.848 c -9.126,0 -16.27,-9.924 -16.27,-22.59 0,-12.666 7.144,-22.588 16.27,-22.588 9.121,0 16.265,9.922 16.265,22.588 0,12.666 -7.144,22.59 -16.265,22.59 z m 0,-39.754 c -5.879,0 -10.85,7.859 -10.85,17.163 0,9.304 4.971,17.166 10.85,17.166 5.879,0 10.845,-7.861 10.845,-17.166 0,-9.305 -4.966,-17.163 -10.845,-17.163 z"
   id="path778" />
							</g>
						</g>
						<g
   id="g786">
							<ellipse
   style="fill:#000072"
   cx="2160.0691"
   cy="2205.989"
   rx="44.870998"
   ry="59.193001"
   id="ellipse784" />
						</g>
						<g
   id="g796">
							<g
   id="g790">
								<ellipse
   style="fill:#ffffff"
   cx="2148.6079"
   cy="2192.259"
   rx="13.557"
   ry="19.877001"
   id="ellipse788" />
							</g>
							<g
   id="g794">
								<path
   style="fill:#000072"
   d="m 2148.609,2214.848 c -9.126,0 -16.27,-9.924 -16.27,-22.59 0,-12.666 7.144,-22.588 16.27,-22.588 9.121,0 16.265,9.922 16.265,22.588 0,12.666 -7.144,22.59 -16.265,22.59 z m 0,-39.754 c -5.879,0 -10.85,7.859 -10.85,17.163 0,9.304 4.971,17.166 10.85,17.166 5.879,0 10.845,-7.861 10.845,-17.166 0,-9.305 -4.966,-17.163 -10.845,-17.163 z"
   id="path792" />
							</g>
						</g>
					</g>
				</g>
			</g>
			<defs
   id="defs809"><filter
     id="Adobe_OpacityMaskFilter"
     filterUnits="userSpaceOnUse"
     x="1134.3101"
     y="1954.245"
     width="1753.082"
     height="1337.127">
					<feFlood
   result="back"
   id="feFlood804" />
					<feBlend
   in="SourceGraphic"
   in2="back"
   mode="normal"
   id="feBlend806" />
				</filter></defs>
			<mask
   maskUnits="userSpaceOnUse"
   x="1134.31"
   y="1954.245"
   width="1753.082"
   height="1337.127"
   id="mask830">
				<g
   style="filter:url(#Adobe_OpacityMaskFilter)"
   id="g828">
					<defs
   id="defs816"><filter
     id="Adobe_OpacityMaskFilter_00000133491498121904699530000002169655900755685025_"
     filterUnits="userSpaceOnUse"
     x="1134.3101"
     y="1954.245"
     width="1753.082"
     height="1337.127">
							<feFlood
   result="back"
   id="feFlood811" />
							<feBlend
   in="SourceGraphic"
   in2="back"
   mode="normal"
   id="feBlend813" />
						</filter></defs>
					<mask
   maskUnits="userSpaceOnUse"
   x="1134.31"
   y="1954.245"
   width="1753.082"
   height="1337.127"
   id="SVGID_1_">
						<g
   style="filter:url(#Adobe_OpacityMaskFilter_00000133491498121904699530000002169655900755685025_)"
   id="g818">
						</g>
					</mask>
					
						<linearGradient
   id="SVGID_00000013188013327046467440000008366155297957177758_"
   gradientUnits="userSpaceOnUse"
   x1="2010.8621"
   y1="1960.3319"
   x2="2001.5936"
   y2="3294.9143">
						<stop
   offset="0"
   style="stop-color:#000000"
   id="stop821" />
						<stop
   offset="1"
   style="stop-color:#FFFFFF"
   id="stop823" />
					</linearGradient>
					<polygon
   style="fill:url(#SVGID_00000013188013327046467440000008366155297957177758_)"
   points="2533.77,3291.352 1491.41,3291.371 1134.31,1954.245 2887.392,1969.523 "
   mask="url(#SVGID_1_)"
   id="polygon826" />
				</g>
			</mask>
			
				<linearGradient
   id="SVGID_00000165218128892045793640000003720560387767837350_"
   gradientUnits="userSpaceOnUse"
   x1="2010.8621"
   y1="1960.3319"
   x2="2001.5936"
   y2="3294.9143">
				<stop
   offset="0"
   style="stop-color:#40E6FF"
   id="stop832" />
				<stop
   offset="1"
   style="stop-color:#40E6FF"
   id="stop834" />
			</linearGradient>
			<polygon
   style="opacity:0.5;fill:url(#SVGID_00000165218128892045793640000003720560387767837350_)"
   points="2533.77,3291.352 1491.41,3291.371 1134.31,1954.245 2887.392,1969.523 "
   id="polygon837" />
			<g
   id="g903">
				<g
   id="g847">
					<g
   id="g841">
						<path
   style="fill:#c6d3e3"
   d="m 2656.068,3259.125 c -6.958,34.406 -25.576,64.013 -51.249,85.031 -25.672,20.969 -58.398,33.35 -93.524,33.35 h -997.428 c -70.251,0 -130.809,-49.521 -144.773,-118.381 z"
   id="path839" />
					</g>
					<g
   id="g845">
						<path
   style="fill:#000072"
   d="m 2511.295,3380.217 h -997.427 c -71.26,0 -133.267,-50.701 -147.432,-120.552 l -0.659,-3.252 h 1293.608 l -0.659,3.25 c -6.855,33.894 -25.391,64.646 -52.188,86.589 -26.816,21.902 -60.639,33.965 -95.243,33.965 z M 1372.447,3261.838 c 14.893,65.649 73.838,112.954 141.421,112.954 h 997.427 c 33.354,0 65.962,-11.626 91.812,-32.737 24.971,-20.449 42.5,-48.835 49.609,-80.217 z"
   id="path843" />
					</g>
				</g>
				<g
   id="g851">
					<path
   style="fill:#000072"
   d="m 2511.314,3393.771 h -997.437 c -77.69,0 -145.273,-55.261 -160.703,-131.401 -0.972,-4.783 0.259,-9.749 3.349,-13.528 3.091,-3.779 7.71,-5.969 12.593,-5.969 H 2656.08 c 4.883,0 9.502,2.19 12.593,5.969 3.091,3.779 4.321,8.745 3.35,13.53 -15.435,76.138 -83.023,131.399 -160.709,131.399 z M 1390.616,3275.407 c 18.828,50.747 67.837,85.83 123.262,85.83 h 997.437 c 55.42,0 104.429,-35.09 123.267,-85.83 z"
   id="path849" />
				</g>
				<g
   style="opacity:0.3"
   id="g855">
					<path
   style="fill:#000072"
   d="m 2656.068,3259.125 c -6.958,34.406 -25.576,64.013 -51.249,85.031 -25.672,20.969 -58.398,33.35 -93.524,33.35 h -616.951 c 101.394,-4.799 191.27,-32.774 268.623,-86.134 0,0 5.327,-13.004 17.131,-32.246 h 475.97 z"
   id="path853" />
				</g>
				<g
   id="g865">
					<g
   id="g859">
						<path
   style="fill:#c6d3e3"
   d="m 2655.684,2633.681 -52.064,593.677 c -3.167,36.229 -33.494,64.013 -69.867,64.013 H 1491.41 c -36.325,0 -66.652,-27.783 -69.867,-64.013 l -52.016,-593.677 c -5.134,-58.303 40.836,-108.495 99.33,-108.495 h 1087.449 c 19.146,0 36.949,5.374 52.064,14.635 31.095,19.098 50.769,54.656 47.314,93.86 z"
   id="path857" />
					</g>
					<g
   id="g863">
						<path
   style="fill:#000072"
   d="M 2533.751,3294.084 H 1491.412 c -38.008,0 -69.209,-28.584 -72.568,-66.487 l -52.017,-593.679 c -2.515,-28.545 7.148,-57.041 26.509,-78.186 19.355,-21.135 46.885,-33.259 75.522,-33.259 h 1087.446 c 18.931,0 37.422,5.2 53.481,15.037 33.413,20.522 52.031,57.466 48.599,96.411 v 0 l -52.065,593.677 c -3.31,37.904 -34.507,66.488 -72.568,66.488 z M 1468.858,2527.897 c -27.124,0 -53.193,11.479 -71.523,31.499 -18.34,20.022 -27.49,47.012 -25.107,74.048 l 52.017,593.677 c 3.11,35.083 31.987,61.538 67.168,61.538 h 1042.339 c 35.229,0 64.102,-26.455 67.168,-61.538 l 52.065,-593.679 c 3.252,-36.882 -14.385,-71.873 -46.035,-91.311 -15.2,-9.312 -32.715,-14.233 -50.645,-14.233 H 1468.858 Z"
   id="path861" />
					</g>
				</g>
				<g
   style="opacity:0.75"
   id="g869">
					<path
   style="fill:#ffffff"
   d="m 2639.081,2569.236 c -12.716,-5.95 -26.92,-9.261 -41.987,-9.261 h -1087.45 c -58.495,0 -104.465,50.193 -99.33,108.495 l 52.016,593.677 c 0.816,9.261 3.407,17.947 7.438,25.768 -26.104,-8.445 -45.682,-31.862 -48.226,-60.558 l -52.016,-593.677 c -5.134,-58.303 40.836,-108.495 99.33,-108.495 h 1087.449 c 34.646,0 64.925,17.611 82.776,44.051 z"
   id="path867" />
				</g>
				<g
   id="g873">
					<path
   style="fill:#000072"
   d="M 2533.77,3307.619 H 1491.422 c -45.122,0 -82.124,-33.899 -86.069,-78.85 l -52.056,-593.687 c -2.832,-32.322 8.11,-64.583 30.029,-88.508 21.919,-23.923 53.101,-37.644 85.547,-37.644 h 1087.446 c 32.446,0 63.628,13.721 85.547,37.644 21.919,23.926 32.861,56.187 30.029,88.508 l -52.056,593.684 c -3.94,44.954 -40.942,78.853 -86.069,78.853 z M 1468.873,2541.464 c -23.691,0 -45.552,9.622 -61.558,27.09 -16.001,17.468 -23.677,40.085 -21.606,63.687 l 52.056,593.684 c 2.461,28.025 25.527,49.16 53.657,49.16 H 2533.77 c 28.135,0 51.201,-21.135 53.657,-49.16 l 52.056,-593.684 c 2.07,-23.601 -5.605,-46.218 -21.606,-63.687 -16.006,-17.468 -37.866,-27.09 -61.558,-27.09 z"
   id="path871" />
				</g>
				<g
   style="opacity:0.3"
   id="g877">
					<path
   style="fill:#000072"
   d="m 2655.684,2633.681 -52.064,593.677 c -3.167,36.229 -33.494,64.013 -69.867,64.013 h -940.229 c 578.562,-45.538 936.535,-279.276 1014.655,-751.598 l 0.192,0.048 c 31.094,19.098 50.768,54.656 47.313,93.86 z"
   id="path875" />
				</g>
				<g
   style="opacity:0.3"
   id="g881">
					<path
   style="fill:#ffffff"
   d="m 1631.858,3023.498 -65.295,6.111 c -16.931,1.585 -31.941,-10.856 -33.526,-27.788 l -22.431,-239.68 c -1.585,-16.931 10.856,-31.941 27.788,-33.526 l 65.295,-6.111 c 16.931,-1.585 31.941,10.856 33.526,27.788 l 22.431,239.68 c 1.584,16.931 -10.857,31.941 -27.788,33.526 z"
   id="path879" />
				</g>
				<g
   id="g901">
					<g
   id="g885">
						<path
   style="clip-rule:evenodd;fill:#ffffff;fill-rule:evenodd"
   d="m 2102.795,3039.523 -11.933,9.575 -1.427,30.26 c -0.384,8.144 -7.658,14.517 -16.245,14.293 h -0.071 c -8.582,-0.224 -15.326,-6.957 -15.065,-15.095 l 0.41,-12.801 c 0.08,-2.5 -1.986,-4.585 -4.615,-4.651 v 0 c -2.628,-0.066 -4.815,1.912 -4.884,4.412 l -0.353,12.798 c -0.224,8.137 -7.35,14.505 -15.915,14.281 h -10e-4 c -8.559,-0.224 -15.412,-6.95 -15.31,-15.082 l 0.134,-10.696 c 0.046,-3.652 -3.029,-6.7 -6.867,-6.796 v 0 c -3.837,-0.096 -6.964,2.795 -6.986,6.446 l -0.063,10.692 c -0.048,8.129 -7.012,14.492 -15.551,14.269 v 0 c -8.534,-0.223 -15.508,-6.943 -15.581,-15.067 l -0.115,-12.778 c -0.022,-2.496 -2.16,-4.577 -4.774,-4.642 v 0 c -2.614,-0.066 -4.705,1.909 -4.671,4.404 l 0.173,12.775 c 0.11,8.123 -6.709,14.48 -15.225,14.258 h -0.07 c -8.511,-0.222 -15.594,-6.937 -15.824,-15.054 l -0.858,-30.158 -11.617,-10.096 c -30.17,-26.201 -49.024,-64.053 -51.253,-104.445 -4.597,-83.318 60.147,-154.809 145.027,-153.475 85.359,1.341 149.762,75.582 143.516,159.502 -3.025,40.661 -22.911,77.956 -53.986,102.875 z"
   id="path883" />
					</g>
					<g
   id="g889">
						<path
   style="fill:#000072"
   d="m 2010.933,2777.128 c 0.776,0 1.553,0 2.334,0.017 85.356,1.34 149.761,75.583 143.516,159.502 -3.027,40.662 -22.915,77.957 -53.989,102.876 l -11.929,9.575 -1.431,30.259 c -0.376,8.005 -7.407,14.297 -15.806,14.297 -0.146,0 -0.293,0 -0.439,-0.01 h -0.068 c -8.584,-0.222 -15.327,-6.956 -15.063,-15.095 l 0.41,-12.8 c 0.078,-2.5 -1.987,-4.585 -4.614,-4.651 v 0 c -0.044,0 -0.083,0 -0.127,0 -2.568,0 -4.688,1.956 -4.756,4.414 l -0.352,12.798 c -0.22,7.998 -7.104,14.287 -15.474,14.287 -0.146,0 -0.293,0 -0.439,-0.01 -8.56,-0.225 -15.415,-6.951 -15.313,-15.083 l 0.137,-10.696 c 0.044,-3.65 -3.032,-6.699 -6.87,-6.794 -0.063,0 -0.127,0 -0.19,0 -3.75,0 -6.772,2.859 -6.792,6.448 l -0.063,10.693 c -0.049,7.988 -6.777,14.272 -15.112,14.272 -0.146,0 -0.293,0 -0.44,-0.01 -8.535,-0.222 -15.508,-6.943 -15.581,-15.066 l -0.117,-12.778 c -0.024,-2.495 -2.158,-4.578 -4.775,-4.644 -0.039,0 -0.083,0 -0.122,0 -2.554,0 -4.58,1.951 -4.546,4.407 l 0.171,12.776 c 0.112,7.983 -6.479,14.263 -14.79,14.263 -0.146,0 -0.288,0 -0.435,-0.01 h -0.068 c -8.516,-0.222 -15.596,-6.936 -15.825,-15.054 l -0.859,-30.159 -11.616,-10.095 c -30.171,-26.201 -49.024,-64.053 -51.255,-104.443 -4.553,-82.551 58.963,-153.493 142.693,-153.496 m 0,-26.294 v 0 c -46.729,0 -90.093,18.635 -122.104,52.463 -32.393,34.231 -49.468,81.167 -46.841,128.772 2.598,47.068 24.565,91.843 60.264,122.847 l 2.905,2.522 0.532,18.63 c 0.625,22.166 18.818,39.998 41.421,40.588 0.444,0.012 0.815,0.015 1.187,0.015 6.738,0 13.198,-1.553 18.97,-4.49 5.923,3.35 12.769,5.334 20.107,5.527 0.371,0.01 0.747,0.015 1.123,0.015 7.778,0 15.073,-2.131 21.309,-5.828 6.387,4.216 14.009,6.763 22.207,6.978 0.376,0.012 0.752,0.017 1.128,0.017 6.963,0 13.506,-1.633 19.258,-4.536 6.011,3.457 12.852,5.388 20.044,5.576 0.435,0.012 0.811,0.017 1.187,0.017 22.559,0 41.035,-17.29 42.07,-39.363 l 0.869,-18.403 2.686,-2.156 c 36.973,-29.648 60.21,-73.911 63.75,-121.426 3.589,-48.213 -13.018,-96.282 -45.557,-131.89 -32.231,-35.271 -76.187,-55.107 -123.765,-55.854 -0.923,-0.013 -1.832,-0.021 -2.75,-0.021 z"
   id="path887" />
					</g>
					<g
   id="g899">
						<g
   id="g893">
							<path
   style="clip-rule:evenodd;fill:#000072;fill-rule:evenodd"
   d="m 1955.814,2896.242 c -22.576,-0.115 -39.955,18.344 -38.844,40.93 1.087,22.102 19.666,39.877 41.524,40.04 21.886,0.163 39.36,-17.385 38.984,-39.533 -0.383,-22.636 -19.058,-41.322 -41.664,-41.437 z"
   id="path891" />
						</g>
						<g
   id="g897">
							<path
   style="clip-rule:evenodd;fill:#000072;fill-rule:evenodd"
   d="m 2068.505,2895.096 c -22.757,-0.116 -41.282,18.411 -41.387,41.079 -0.103,22.18 17.663,40.018 39.69,40.182 22.057,0.164 40.628,-17.444 41.454,-39.672 0.844,-22.717 -16.969,-41.473 -39.757,-41.589 z"
   id="path895" />
						</g>
					</g>
				</g>
			</g>
		</g>
</svg>
